<svg width="32" height="32" viewBox="0 0 32 32" fill="none" xmlns="http://www.w3.org/2000/svg">
<rect width="32" height="32" fill="white"/>
<path d="M14.7473 25.9531C13.5162 25.9531 12.3705 25.2887 11.7586 24.2191L5.6875 13.6773L7.41739 12.6807L13.4905 23.2246C13.7497 23.6761 14.231 23.9558 14.7483 23.9558C15.2811 23.9558 15.7696 23.6637 16.0226 23.1948L16.037 23.169L24.7636 8.05876H19.4299C18.3439 8.05876 17.3277 8.64087 16.7765 9.57781L14.4264 13.6835L12.6934 12.692L15.0507 8.57299C15.9578 7.02412 17.6352 6.0625 19.4289 6.0625H25.3313C26.2518 6.0625 27.0005 6.81123 27.0005 7.73171C27.0005 7.99191 26.9388 8.25211 26.8215 8.48352L26.7948 8.53288L17.772 24.1564C17.1673 25.2651 16.0103 25.9531 14.7473 25.9531Z" fill="#6C56F9"/>
<path d="M10.0611 16.1857C7.27086 16.1857 5 13.9149 5 11.1236C5 8.33233 7.27086 6.0625 10.0611 6.0625C12.8513 6.0625 15.1232 8.33336 15.1232 11.1236C15.1232 13.9138 12.8524 16.1857 10.0611 16.1857ZM10.0611 8.05979C8.37132 8.05979 6.99626 9.43485 6.99626 11.1246C6.99626 12.8144 8.37132 14.1895 10.0611 14.1895C11.7509 14.1895 13.1259 12.8144 13.1259 11.1246C13.1259 9.43485 11.7519 8.05979 10.0611 8.05979Z" fill="#6C56F9"/>
<mask id="mask0_3444_49882" style="mask-type:alpha" maskUnits="userSpaceOnUse" x="5" y="6" width="11" height="11">
<path d="M10.0611 16.1857C7.27086 16.1857 5 13.9149 5 11.1236C5 8.33233 7.27086 6.0625 10.0611 6.0625C12.8513 6.0625 15.1232 8.33336 15.1232 11.1236C15.1232 13.9138 12.8524 16.1857 10.0611 16.1857ZM10.0611 8.05979C8.37132 8.05979 6.99626 9.43485 6.99626 11.1246C6.99626 12.8144 8.37132 14.1895 10.0611 14.1895C11.7509 14.1895 13.1259 12.8144 13.1259 11.1246C13.1259 9.43485 11.7519 8.05979 10.0611 8.05979Z" fill="#6C56F9"/>
</mask>
<g mask="url(#mask0_3444_49882)">
<path d="M15.121 8.43716L12.773 12.5418L9.85938 10.599L12.2156 6.47998C12.2526 6.48615 15.1303 8.43716 15.121 8.43716Z" fill="url(#paint0_linear_3444_49882)"/>
</g>
<defs>
<linearGradient id="paint0_linear_3444_49882" x1="10.973" y1="8.63225" x2="14.0159" y2="10.3891" gradientUnits="userSpaceOnUse">
<stop stop-color="#6C56F9" stop-opacity="0"/>
<stop offset="0.0193" stop-color="#6A54F4" stop-opacity="0.02"/>
<stop offset="0.0926" stop-color="#6550E9" stop-opacity="0.096"/>
<stop offset="0.1958" stop-color="#624EE2" stop-opacity="0.2029"/>
<stop offset="0.4824" stop-color="#614DE0" stop-opacity="0.5"/>
<stop offset="0.9484" stop-color="#5746CA" stop-opacity="0.9502"/>
<stop offset="1" stop-color="#5645C7"/>
</linearGradient>
</defs>
</svg>
